<svg width="181" height="34" viewBox="0 0 181 34" fill="none" xmlns="http://www.w3.org/2000/svg">
    <path d="M0 26.5974V1.39569H6.71603L12.0357 10.6385C13.5651 13.2984 15.028 16.4236 16.2249 19.2829H16.2914C15.9589 15.9582 15.8259 12.5669 15.8259 8.77668V1.39569H21.1455V26.5974H15.0944L9.64183 16.8891C8.11243 14.1628 6.45005 10.971 5.18664 7.97873H5.05365C5.25313 11.3035 5.31963 14.8943 5.31963 19.017V26.5974H0Z" fill="#0072BC" />
    <path d="M31.9859 3.19213C31.9859 4.78801 30.789 6.05143 28.8606 6.05143C27.0653 6.05143 25.8683 4.78801 25.8683 3.19213C25.8683 1.59624 27.0653 0.332825 28.9271 0.332825C30.789 0.332825 31.9194 1.52974 31.9859 3.19213ZM26.0013 26.5985V8.24577H31.7864V26.532H26.0013V26.5985Z" fill="#0072BC" />
    <path d="M50.3363 26.1333C49.2724 26.5987 47.344 26.9977 45.1497 26.9977C39.1651 26.9977 35.3083 23.407 35.3083 17.6219C35.3083 12.3022 39.0321 7.91354 45.8811 7.91354C47.4105 7.91354 49.0729 8.17953 50.2698 8.64499L49.3389 12.9007C48.6739 12.5682 47.61 12.3022 46.0806 12.3022C43.0218 12.3022 41.0935 14.4301 41.0935 17.4224C41.0935 20.8136 43.3543 22.5425 46.1471 22.5425C47.5435 22.5425 48.6074 22.2765 49.4719 21.9441L50.3363 26.1333Z" fill="#0072BC" />
    <path d="M53.4642 0H59.2493V10.4398H59.3158C59.9143 9.64183 60.6457 9.04337 61.5767 8.5779C62.4411 8.11243 63.505 7.84645 64.569 7.84645C68.2262 7.84645 71.0855 10.3733 71.0855 15.8924V26.5981H65.3004V16.4909C65.3004 14.097 64.436 12.4346 62.3081 12.4346C60.7787 12.4346 59.8478 13.4321 59.4488 14.4295C59.3158 14.762 59.2493 15.2939 59.2493 15.6929V26.5317H53.4642V0Z" fill="#0072BC" />
    <path d="M93.9568 17.223C93.9568 23.9391 89.1691 26.9979 84.182 26.9979C78.7958 26.9979 74.6066 23.4736 74.6066 17.5555C74.6066 11.6374 78.5299 7.8472 84.5144 7.8472C90.233 7.8472 93.9568 11.7039 93.9568 17.223ZM80.5912 17.4225C80.5912 20.5478 81.9211 22.9416 84.3814 22.9416C86.6423 22.9416 88.0387 20.7473 88.0387 17.4225C88.0387 14.6962 86.9748 11.9699 84.3814 11.9699C81.5886 11.9034 80.5912 14.6962 80.5912 17.4225Z" fill="#0072BC" />
    <path d="M97.9474 20.6801C99.4768 21.4781 101.871 22.276 104.331 22.276C106.991 22.276 108.387 21.2121 108.387 19.5497C108.387 18.0203 107.19 17.0894 104.131 16.0255C99.8758 14.5626 97.083 12.2352 97.083 8.57797C97.083 4.25577 100.74 0.997498 106.725 0.997498C109.651 0.997498 111.712 1.59595 113.241 2.26091L111.978 6.84909C110.98 6.38362 109.119 5.65217 106.658 5.65217C104.131 5.65217 102.935 6.7826 102.935 8.1125C102.935 9.70839 104.331 10.4398 107.656 11.6368C112.177 13.2991 114.239 15.6265 114.239 19.2172C114.239 23.4064 110.98 27.0637 103.932 27.0637C101.006 27.0637 98.1469 26.2657 96.7505 25.4678L97.9474 20.6801Z" fill="#2AAC27" />
    <path d="M117.831 0H123.616V10.4398H123.682C124.281 9.64183 125.012 9.04337 125.943 8.5779C126.808 8.11243 127.871 7.84645 128.935 7.84645C132.593 7.84645 135.452 10.3733 135.452 15.8924V26.5981H129.667V16.4909C129.667 14.097 128.802 12.4346 126.675 12.4346C125.145 12.4346 124.214 13.4321 123.749 14.4295C123.616 14.762 123.549 15.2939 123.549 15.6929V26.5317H117.764V0H117.831Z" fill="#2AAC27" />
    <path d="M158.325 17.223C158.325 23.9391 153.537 26.9979 148.55 26.9979C143.164 26.9979 138.975 23.4736 138.975 17.5555C138.975 11.6374 142.898 7.8472 148.883 7.8472C154.601 7.8472 158.325 11.7039 158.325 17.223ZM144.959 17.4225C144.959 20.5478 146.289 22.9416 148.75 22.9416C151.011 22.9416 152.407 20.7473 152.407 17.4225C152.407 14.6962 151.343 11.9699 148.75 11.9699C146.023 11.9034 144.959 14.6962 144.959 17.4225Z" fill="#2AAC27" />
    <path d="M161.915 14.4302C161.915 12.0364 161.849 9.97505 161.782 8.24617H166.77L167.036 10.8395H167.102C168.498 8.91112 170.56 7.8472 173.286 7.8472C177.342 7.8472 181 11.305 181 17.1566C181 23.8061 176.677 26.9314 172.555 26.9314C170.36 26.9314 168.565 26.0669 167.767 24.87H167.7V33.9799H161.915V14.4302ZM167.7 18.7524C167.7 19.1514 167.767 19.5504 167.833 19.9494C168.232 21.4787 169.562 22.6757 171.225 22.6757C173.685 22.6757 175.214 20.6143 175.214 17.489C175.214 14.5632 173.885 12.3689 171.358 12.3689C169.695 12.3689 168.232 13.5658 167.9 15.2282C167.833 15.5607 167.767 15.8931 167.767 16.2256V18.7524H167.7Z" fill="#2AAC27" />
</svg>