<svg width="40" height="40" viewBox="0 0 40 40" fill="none" xmlns="http://www.w3.org/2000/svg">
    <path d="M35 19.1667C35.0057 21.3665 34.4918 23.5365 33.5 25.5C32.324 27.8529 30.5162 29.832 28.2791 31.2155C26.0419 32.599 23.4637 33.3323 20.8333 33.3334C18.6335 33.3391 16.4635 32.8251 14.5 31.8334L5 35L8.16667 25.5C7.17488 23.5365 6.66093 21.3665 6.66667 19.1667C6.66768 16.5363 7.40102 13.9581 8.78453 11.7209C10.168 9.48377 12.1471 7.67596 14.5 6.50002C16.4635 5.50824 18.6335 4.99428 20.8333 5.00002H21.6667C25.1406 5.19167 28.4217 6.65795 30.8819 9.11812C33.3421 11.5783 34.8083 14.8594 35 18.3334V19.1667Z" stroke="black" stroke-width="2" stroke-linecap="round" stroke-linejoin="round" />
    <ellipse cx="17.8723" cy="19.5745" rx="2.55319" ry="2.55319" fill="#FFCC33" />
    <ellipse cx="23.8298" cy="19.5745" rx="2.55319" ry="2.55319" fill="#FFCC33" />
</svg>