<svg width="40" height="40" viewBox="0 0 40 40" fill="none" xmlns="http://www.w3.org/2000/svg">
    <path d="M23.3331 3.33319H9.99973C9.11568 3.33319 8.26783 3.68438 7.64271 4.3095C7.01759 4.93462 6.6664 5.78247 6.6664 6.66652V33.3332C6.6664 34.2172 7.01759 35.0651 7.64271 35.6902C8.26783 36.3153 9.11568 36.6665 9.99973 36.6665H29.9997C30.8838 36.6665 31.7316 36.3153 32.3568 35.6902C32.9819 35.0651 33.3331 34.2172 33.3331 33.3332V13.3332L23.3331 3.33319Z" stroke="black" stroke-width="2" stroke-linecap="round" stroke-linejoin="round" />
    <path d="M32.766 13.617L23.4043 3.82977V13.617H32.766Z" fill="#9ACDED" />
    <path d="M23.3336 3.33319V13.3332H33.3336" stroke="black" stroke-width="2" stroke-linecap="round" stroke-linejoin="round" />
    <path d="M26.6669 21.6668H13.3336" stroke="black" stroke-width="2" stroke-linecap="round" stroke-linejoin="round" />
    <path d="M26.6669 28.3332H13.3336" stroke="black" stroke-width="2" stroke-linecap="round" stroke-linejoin="round" />
    <path d="M16.6669 15H15.0003H13.3336" stroke="black" stroke-width="2" stroke-linecap="round" stroke-linejoin="round" />
</svg>