<svg width="40" height="40" viewBox="0 0 40 40" fill="none" xmlns="http://www.w3.org/2000/svg">
    <path d="M30 13.3333C30 10.6812 28.9464 8.13764 27.0711 6.26228C25.1957 4.38691 22.6522 3.33334 20 3.33334C17.3478 3.33334 14.8043 4.38691 12.9289 6.26228C11.0536 8.13764 10 10.6812 10 13.3333C10 25 5 28.3333 5 28.3333H35C35 28.3333 30 25 30 13.3333Z" fill="#B9D5E8" stroke="black" stroke-width="2" stroke-linecap="round" stroke-linejoin="round" />
    <path d="M22.883 35C22.59 35.5051 22.1694 35.9244 21.6634 36.2159C21.1573 36.5073 20.5836 36.6608 19.9997 36.6608C19.4157 36.6608 18.842 36.5073 18.336 36.2159C17.8299 35.9244 17.4094 35.5051 17.1163 35" stroke="black" stroke-width="2" stroke-linecap="round" stroke-linejoin="round" />
</svg>